<?xml version="1.0" encoding="UTF-8" ?>
<!DOCTYPE svg PUBLIC "-//W3C//DTD SVG 1.1//EN" "http://www.w3.org/Graphics/SVG/1.1/DTD/svg11.dtd">
<svg width="512pt" height="512pt" viewBox="0 0 512 512" version="1.1" xmlns="http://www.w3.org/2000/svg">
<g id="#ffffffff">
<path fill="#ffffff" opacity="1.00" d=" M 78.65 170.70 C 96.75 161.27 117.96 158.75 137.98 161.96 C 161.26 165.89 182.85 178.45 198.13 196.39 C 158.29 187.92 118.44 179.40 78.65 170.70 Z" />
<path fill="#ffffff" opacity="1.00" d=" M 210.92 165.13 C 243.72 164.89 276.53 165.09 309.34 165.03 C 309.42 176.67 309.42 188.30 309.34 199.94 C 298.58 199.95 287.81 199.93 277.05 199.95 C 277.04 204.42 277.07 208.90 277.02 213.37 C 265.49 211.02 254.01 208.45 242.50 205.96 C 242.52 203.98 242.52 202.00 242.54 200.02 C 233.69 199.85 224.85 199.98 216.00 199.96 C 214.27 200.00 212.57 199.68 210.91 199.24 C 210.94 187.87 210.93 176.50 210.92 165.13 Z" />
<path fill="#ffffff" opacity="1.00" d=" M 325.19 165.29 C 335.87 165.48 346.55 165.32 357.23 165.37 C 370.57 186.79 384.13 208.08 397.56 229.45 C 399.81 232.93 401.82 236.57 404.39 239.84 C 399.11 240.04 394.20 237.92 389.05 237.20 C 382.69 235.80 376.28 234.59 369.98 232.93 C 366.45 232.35 362.83 231.93 359.59 230.31 C 356.30 230.73 353.20 229.32 350.03 228.73 C 344.02 227.54 338.05 226.21 332.06 224.96 C 329.80 224.41 327.53 223.91 325.24 223.55 C 325.21 204.13 325.31 184.71 325.19 165.29 Z" />
<path fill="#ffffff" opacity="1.00" d=" M 433.41 165.33 C 444.54 165.37 455.68 165.45 466.82 165.29 C 466.72 194.86 466.76 224.43 466.79 254.00 C 455.68 251.32 444.46 249.10 433.29 246.66 C 433.60 219.55 433.46 192.44 433.41 165.33 Z" />
<path fill="#ffffff" opacity="1.00" d=" M 62.16 180.91 C 82.94 185.62 103.79 190.05 124.66 194.34 C 119.81 194.56 114.95 195.17 110.10 194.99 C 92.97 191.13 75.73 187.74 58.62 183.77 C 59.81 182.83 60.98 181.86 62.16 180.91 Z" />
<path fill="#ffffff" opacity="1.00" d=" M 144.55 198.99 C 159.17 201.68 173.70 204.93 188.19 208.24 C 186.96 209.20 186.08 211.42 184.21 210.88 C 175.15 208.92 166.09 207.00 157.04 204.98 C 152.82 203.12 148.96 200.46 144.55 198.99 Z" />
<path fill="#ffffff" opacity="1.00" d=" M 37.38 210.35 C 38.20 208.83 39.04 207.32 39.93 205.85 C 52.21 208.55 64.56 210.98 76.79 213.93 C 75.56 215.36 74.31 216.79 73.08 218.23 C 61.21 215.45 49.16 213.42 37.38 210.35 Z" />
<path fill="#ffffff" opacity="1.00" d=" M 35.20 214.66 C 46.97 216.83 58.63 219.61 70.35 222.06 C 60.93 236.90 58.78 255.47 62.27 272.49 C 65.29 287.25 73.89 301.03 86.55 309.39 C 101.61 319.61 121.17 322.29 138.66 317.66 C 153.20 313.97 164.95 303.92 175.21 293.44 C 183.12 301.51 190.59 310.00 198.41 318.17 C 184.39 332.30 168.06 345.40 148.35 350.23 C 129.51 354.90 109.36 354.70 90.69 349.32 C 69.17 343.07 50.79 327.78 39.53 308.55 C 30.35 292.72 26.35 274.20 26.76 255.99 C 26.60 241.82 29.49 227.63 35.20 214.66 Z" />
<path fill="#ffffff" opacity="1.00" d=" M 242.39 219.96 C 254.04 221.92 265.49 224.97 277.10 227.16 C 277.02 228.34 276.93 229.53 276.83 230.73 C 265.86 228.39 254.89 226.07 243.93 223.74 C 241.84 223.70 242.71 221.26 242.39 219.96 Z" />
<path fill="#ffffff" opacity="1.00" d=" M 325.11 238.04 C 328.42 238.42 331.69 239.11 334.88 240.07 C 342.79 241.20 350.43 243.77 358.36 244.72 C 358.49 245.77 358.60 246.82 358.69 247.88 C 354.11 247.16 349.51 246.29 345.08 244.88 C 338.41 244.05 331.92 242.14 325.29 240.99 C 325.25 240.25 325.16 238.78 325.11 238.04 Z" />
<path fill="#ffffff" opacity="1.00" d=" M 370.49 247.19 C 374.76 249.05 379.52 249.27 384.00 250.45 C 394.41 252.96 405.03 254.64 415.37 257.44 C 415.95 258.55 416.46 259.69 417.06 260.79 C 402.66 257.29 388.07 254.45 373.59 251.29 C 372.15 250.33 371.57 248.49 370.49 247.19 Z" />
<path fill="#ffffff" opacity="1.00" d=" M 242.57 249.36 C 254.05 251.99 265.63 254.15 277.08 256.92 C 277.05 258.61 277.04 260.30 277.03 262.00 C 265.52 259.65 254.08 256.90 242.54 254.73 C 242.53 252.94 242.56 251.14 242.57 249.36 Z" />
<path fill="#ffffff" opacity="1.00" d=" M 242.53 259.17 C 253.93 261.31 265.25 264.01 276.60 266.42 C 276.71 266.79 276.93 267.51 277.03 267.88 C 277.06 294.89 277.06 321.91 277.03 348.93 C 265.54 349.10 254.05 348.96 242.56 349.00 C 242.46 319.06 242.52 289.11 242.53 259.17 Z" />
<path fill="#ffffff" opacity="1.00" d=" M 433.36 261.05 C 444.54 263.51 455.71 265.97 466.93 268.25 C 466.88 268.93 466.80 270.30 466.76 270.99 C 455.53 269.36 444.60 266.10 433.39 264.30 C 433.38 263.21 433.37 262.13 433.36 261.05 Z" />
<path fill="#ffffff" opacity="1.00" d=" M 325.24 272.29 C 325.24 270.59 325.25 268.89 325.24 267.20 C 335.33 269.99 345.73 271.55 355.88 274.13 C 356.55 274.21 357.90 274.36 358.58 274.44 C 358.53 276.22 358.42 278.01 358.39 279.81 C 358.07 279.56 357.43 279.06 357.12 278.82 C 346.43 276.92 335.94 274.04 325.24 272.29 Z" />
<path fill="#ffffff" opacity="1.00" d=" M 325.13 277.09 C 336.28 279.62 347.51 281.72 358.62 284.39 C 358.39 305.82 358.50 327.27 358.56 348.70 C 347.44 348.68 336.31 348.59 325.18 348.75 C 325.25 324.86 325.34 300.97 325.13 277.09 Z" />
<path fill="#ffffff" opacity="1.00" d=" M 392.44 282.01 C 407.64 284.87 422.68 288.56 437.85 291.61 C 442.86 292.92 448.04 293.49 452.97 295.07 C 457.63 295.44 462.02 297.28 466.68 297.58 C 466.69 299.26 466.78 300.94 466.84 302.64 C 443.26 297.23 419.51 292.41 395.85 287.30 C 394.80 285.48 393.69 283.69 392.44 282.01 Z" />
<path fill="#ffffff" opacity="1.00" d=" M 399.29 293.00 C 421.78 297.81 444.23 302.87 466.78 307.39 C 466.79 321.18 466.69 334.97 466.83 348.75 C 456.11 348.57 445.39 348.72 434.67 348.67 C 423.88 331.36 412.86 314.20 402.03 296.91 C 401.16 295.58 400.28 294.25 399.29 293.00 Z" />
</g>
</svg>
